<svg width="928" height="141" viewBox="0 0 928 141" fill="none" xmlns="http://www.w3.org/2000/svg">
<path d="M0.105469 11.8076C3.7513 12.7191 7.22624 13.4027 10.5303 13.8584C13.8343 14.3141 16.7396 14.6559 19.2461 14.8838C22.2083 15.2256 24.9427 15.3395 27.4492 15.2256C30.6393 15.2256 34.627 14.9408 39.4121 14.3711C44.3112 13.8014 49.3242 13.2887 54.4512 12.833C59.5781 12.2633 64.4772 11.9215 69.1484 11.8076C73.9336 11.5798 77.8073 11.8646 80.7695 12.6621C83.7318 13.3457 86.751 14.4281 89.8271 15.9092C93.0173 17.2764 95.9225 19.0423 98.543 21.207C101.163 23.2578 103.328 25.7074 105.037 28.5557C106.746 31.29 107.715 34.4232 107.942 37.9551C107.828 42.3984 106.803 46.557 104.866 50.4307C103.271 53.7347 100.594 57.1527 96.834 60.6846C93.0742 64.1025 87.6624 66.723 80.5986 68.5459C84.1305 69.0016 87.1497 69.7992 89.6562 70.9385C92.2767 71.9639 94.4984 73.2171 96.3213 74.6982C98.2581 76.0654 99.7962 77.6035 100.936 79.3125C102.189 81.0215 103.157 82.7305 103.841 84.4395C105.55 88.4271 106.347 92.8704 106.233 97.7695C105.55 104.15 104.24 109.22 102.303 112.979C100.48 116.739 98.3721 119.645 95.9795 121.695C93.5869 123.746 91.1374 125.17 88.6309 125.968C86.1243 126.765 83.8457 127.392 81.7949 127.848C79.7441 128.303 77.2376 128.531 74.2754 128.531C71.3132 128.531 68.123 128.474 64.7051 128.36C61.401 128.132 57.9831 127.962 54.4512 127.848C50.9193 127.62 47.5583 127.62 44.3682 127.848C41.7477 128.076 38.5576 128.303 34.7979 128.531C31.6077 128.759 27.6201 129.044 22.835 129.386C18.0498 129.614 12.4671 129.898 6.08691 130.24C7.34017 129.329 8.36556 128.303 9.16309 127.164C10.0745 125.911 10.8151 124.828 11.3848 123.917C11.9544 122.778 12.4671 121.695 12.9229 120.67C13.2646 119.758 13.5495 117.252 13.7773 113.15C14.0052 109.049 14.1761 104.15 14.29 98.4531C14.404 92.6426 14.4609 86.4333 14.4609 79.8252C14.5749 73.1032 14.5179 66.666 14.29 60.5137C14.1761 54.2474 13.9482 48.7217 13.6064 43.9365C13.3786 39.0374 13.0368 35.5055 12.5811 33.3408C11.8975 30.9482 10.986 28.4987 9.84668 25.9922C8.93522 23.8275 7.625 21.4919 5.91602 18.9854C4.32096 16.4788 2.38411 14.0863 0.105469 11.8076ZM36.165 29.2393C36.165 29.695 36.222 31.2331 36.3359 33.8535C36.4499 36.1322 36.5638 39.6641 36.6777 44.4492C36.9056 49.1204 37.1904 55.7855 37.5322 64.4443C40.3805 65.6976 43.1719 66.3812 45.9062 66.4951C48.6406 66.4951 51.0902 66.3812 53.2549 66.1533C55.7614 65.8115 58.154 65.2419 60.4326 64.4443C63.5088 63.1911 65.9014 61.1403 67.6104 58.292C69.4333 55.4437 70.6296 52.4814 71.1992 49.4053C71.8828 46.2152 72.0537 43.2529 71.7119 40.5186C71.3701 37.6702 70.6296 35.6195 69.4902 34.3662C67.3255 32.4294 64.6481 30.8343 61.458 29.5811C58.7236 28.5557 55.2487 27.8721 51.0332 27.5303C46.9316 27.0745 41.9756 27.6442 36.165 29.2393ZM35.3105 110.245C39.526 112.41 43.2288 113.834 46.4189 114.518C49.609 115.201 52.2865 115.543 54.4512 115.543C56.9577 115.543 59.1224 115.201 60.9453 114.518C63.11 113.492 65.2178 112.125 67.2686 110.416C69.4333 108.593 71.0283 106.485 72.0537 104.093C73.193 101.586 73.6488 98.8519 73.4209 95.8896C73.193 92.8135 71.8828 89.4525 69.4902 85.8066C67.3255 83.1862 64.7051 81.1354 61.6289 79.6543C58.8945 78.401 55.4196 77.6035 51.2041 77.2617C47.1025 76.9199 42.0326 77.8883 35.9941 80.167L35.3105 110.245ZM161.604 57.4375C164.567 57.4375 167.643 58.0072 170.833 59.1465C174.023 60.1719 177.099 61.5391 180.062 63.248C183.024 64.8431 185.701 66.609 188.094 68.5459C190.6 70.3688 192.651 72.1348 194.246 73.8438C197.094 76.9199 199.031 81.0785 200.057 86.3193C201.196 91.4463 201.424 96.7441 200.74 102.213C200.057 107.568 198.462 112.638 195.955 117.423C193.449 122.208 189.974 125.74 185.53 128.019C182.34 129.614 179.207 130.867 176.131 131.778C173.055 132.69 170.092 133.373 167.244 133.829C164.396 134.285 161.718 134.513 159.212 134.513C156.705 134.513 154.541 134.456 152.718 134.342C149.3 134.114 145.711 132.918 141.951 130.753C138.305 128.588 134.83 125.911 131.526 122.721C128.336 119.531 125.602 116.056 123.323 112.296C121.045 108.422 119.677 104.776 119.222 101.358C118.538 96.6872 118.424 91.7881 118.88 86.6611C119.336 81.5342 120.988 76.806 123.836 72.4766C126.798 68.1471 131.242 64.5583 137.166 61.71C143.204 58.8617 151.351 57.4375 161.604 57.4375ZM155.965 123.746C157.218 123.974 158.927 123.689 161.092 122.892C163.257 121.98 165.364 120.556 167.415 118.619C169.58 116.682 171.46 114.233 173.055 111.271C174.764 108.194 175.789 104.492 176.131 100.162C176.473 95.9466 176.473 92.0729 176.131 88.541C175.903 85.0091 175.39 81.9329 174.593 79.3125C173.795 76.5781 172.884 74.3564 171.858 72.6475C170.833 70.9385 169.751 69.7422 168.611 69.0586C166.674 68.0332 164.339 67.2357 161.604 66.666C158.87 65.9824 156.535 66.0964 154.598 67.0078C153.686 67.4635 152.547 68.432 151.18 69.9131C149.812 71.3942 148.445 73.2741 147.078 75.5527C145.711 77.7174 144.458 80.224 143.318 83.0723C142.293 85.9206 141.552 88.8828 141.097 91.959C140.641 95.0352 140.527 98.3392 140.755 101.871C141.097 105.403 141.837 108.764 142.977 111.954C144.116 115.03 145.711 117.708 147.762 119.986C149.926 122.151 152.661 123.404 155.965 123.746ZM207.234 52.1396C209.399 52.2536 211.336 52.3105 213.045 52.3105C214.868 52.1966 216.406 52.0827 217.659 51.9688C219.14 51.8548 220.451 51.7409 221.59 51.627C223.299 51.3991 225.065 51.1143 226.888 50.7725C228.483 50.5446 230.135 50.2598 231.844 49.918C233.667 49.4622 235.433 48.9495 237.142 48.3799C236.458 50.0889 235.888 51.57 235.433 52.8232C234.977 54.0765 234.635 55.1589 234.407 56.0703C234.065 57.0957 233.895 57.9502 233.895 58.6338C233.781 59.4313 233.724 60.3997 233.724 61.5391C233.61 63.4759 233.61 66.609 233.724 70.9385C239.648 65.8115 244.604 61.8239 248.592 58.9756C252.693 56.1273 255.94 53.9056 258.333 52.3105C261.181 50.4876 263.403 49.2913 264.998 48.7217C269.214 48.0381 272.916 49.0065 276.106 51.627C277.474 52.7663 278.784 54.3044 280.037 56.2412C281.29 58.0641 282.373 60.5137 283.284 63.5898C284.196 66.666 284.879 70.3688 285.335 74.6982C285.791 78.9137 285.848 83.9837 285.506 89.9082C283.113 90.1361 280.949 90.3639 279.012 90.5918C277.189 90.8197 275.651 90.9906 274.397 91.1045C272.916 91.3324 271.549 91.4463 270.296 91.4463L265.682 91.959C264.087 92.1868 262.093 92.4147 259.7 92.6426C257.422 92.7565 254.63 92.9844 251.326 93.3262C256.111 89.4525 259.188 86.0915 260.555 83.2432C262.036 80.2809 262.662 77.8314 262.435 75.8945C262.207 73.7298 261.181 71.8499 259.358 70.2549C257.194 69.0016 254.858 68.5459 252.352 68.8877C250.187 69.1156 247.68 70.084 244.832 71.793C241.984 73.502 238.965 76.6921 235.774 81.3633C236.002 88.6549 236.23 94.6934 236.458 99.4785C236.8 104.264 237.085 108.137 237.312 111.1C237.654 114.518 237.939 117.195 238.167 119.132C238.509 120.841 239.192 122.664 240.218 124.601C241.015 126.196 242.155 127.962 243.636 129.898C245.117 131.835 247.054 133.772 249.446 135.709C244.433 135.481 240.332 135.481 237.142 135.709C235.205 135.823 233.496 135.937 232.015 136.051C230.42 136.279 228.711 136.507 226.888 136.734C225.293 136.962 223.413 137.19 221.248 137.418C219.197 137.76 216.919 138.102 214.412 138.443C215.324 137.19 216.064 135.709 216.634 134C217.203 132.405 217.659 130.867 218.001 129.386C218.457 127.677 218.799 125.911 219.026 124.088C219.14 122.493 219.197 120.1 219.197 116.91C219.311 113.72 219.254 110.131 219.026 106.144C218.912 102.042 218.742 97.8265 218.514 93.4971C218.286 89.0537 218.001 84.8952 217.659 81.0215C217.317 77.1478 216.919 73.7868 216.463 70.9385C216.121 67.9762 215.722 65.9255 215.267 64.7861C214.697 63.4189 214.013 62.0518 213.216 60.6846C212.532 59.4313 211.678 58.1211 210.652 56.7539C209.627 55.2728 208.488 53.7347 207.234 52.1396ZM376.595 3.0918C378.759 3.20573 381.095 3.2627 383.602 3.2627C385.766 3.2627 388.216 3.31966 390.95 3.43359C393.799 3.43359 396.761 3.31966 399.837 3.0918C397.103 4.34505 394.71 6.16797 392.659 8.56055C390.608 10.9531 388.956 13.3457 387.703 15.7383C386.108 18.5866 384.798 21.5488 383.772 24.625C383.203 26.4479 382.747 29.695 382.405 34.3662C382.063 38.9235 381.779 44.2783 381.551 50.4307C381.437 56.583 381.38 63.0771 381.38 69.9131C381.38 76.749 381.437 83.3001 381.551 89.5664C381.665 95.7188 381.836 101.188 382.063 105.973C382.291 110.758 382.576 114.119 382.918 116.056C383.374 118.334 383.943 120.499 384.627 122.55C385.197 124.373 385.937 126.253 386.849 128.189C387.76 130.012 388.899 131.493 390.267 132.633L372.835 140.494C371.924 139.241 371.183 137.931 370.613 136.563C370.044 135.31 369.588 134.171 369.246 133.146C368.79 131.892 368.506 130.753 368.392 129.728C368.164 128.36 367.936 126.879 367.708 125.284C367.48 123.575 367.195 121.98 366.854 120.499C366.626 118.904 366.455 117.594 366.341 116.568C366.227 115.543 366.227 114.916 366.341 114.688C366.455 114.461 365.771 115.486 364.29 117.765C362.809 119.929 360.587 122.493 357.625 125.455C354.777 128.303 351.245 131.095 347.029 133.829C342.814 136.45 338.086 138.102 332.845 138.785C327.49 139.469 322.534 138.443 317.977 135.709C313.533 132.975 309.716 129.158 306.526 124.259C303.336 119.246 300.887 113.492 299.178 106.998C297.583 100.39 296.956 93.668 297.298 86.832C297.526 82.2747 298.551 78.2301 300.374 74.6982C302.197 71.0524 304.476 67.9193 307.21 65.2988C310.058 62.5645 313.134 60.2858 316.438 58.4629C319.856 56.526 323.16 54.931 326.351 53.6777C329.655 52.4245 332.731 51.513 335.579 50.9434C338.427 50.3737 340.706 49.9749 342.415 49.7471C344.466 49.6331 346.801 49.9749 349.422 50.7725C351.701 51.4561 354.321 52.5954 357.283 54.1904C360.359 55.7855 363.777 58.1781 367.537 61.3682C366.854 49.9749 366.227 40.8604 365.657 34.0244C365.088 27.0745 364.518 21.7767 363.948 18.1309C363.379 13.8014 362.866 10.8392 362.41 9.24414C361.84 8.10482 361.1 6.96549 360.188 5.82617C359.391 4.91471 358.366 4.00326 357.112 3.0918C355.973 2.06641 354.606 1.26888 353.011 0.699219C355.973 1.26888 358.821 1.66764 361.556 1.89551C364.29 2.12337 366.797 2.35124 369.075 2.5791C371.696 2.80697 374.202 2.97786 376.595 3.0918ZM333.699 66.8369C331.535 67.6344 329.769 69.0016 328.401 70.9385C327.148 72.8753 326.123 75.2109 325.325 77.9453C324.528 80.5658 323.958 83.4141 323.616 86.4902C323.388 89.4525 323.217 92.3577 323.104 95.2061C323.104 97.9404 323.104 100.447 323.104 102.726C323.104 105.004 323.104 106.713 323.104 107.853C323.104 108.536 323.217 109.789 323.445 111.612C323.787 113.321 324.471 115.144 325.496 117.081C326.521 118.904 327.946 120.556 329.769 122.037C331.705 123.518 334.269 124.259 337.459 124.259C340.079 124.031 342.871 123.119 345.833 121.524C348.453 120.157 351.416 117.993 354.72 115.03C358.138 111.954 361.784 107.568 365.657 101.871C365.429 98.2253 365.258 95.2061 365.145 92.8135C365.145 90.4209 365.088 88.484 364.974 87.0029C364.86 85.2939 364.803 83.9268 364.803 82.9014V80.3379C364.803 79.6543 364.803 78.9137 364.803 78.1162C364.803 77.3187 364.86 76.5781 364.974 75.8945C361.784 73.6159 358.935 71.679 356.429 70.084C354.036 68.375 351.644 67.1217 349.251 66.3242C346.972 65.4128 344.58 65.014 342.073 65.1279C339.681 65.1279 336.889 65.6976 333.699 66.8369ZM440.682 106.485C443.872 106.485 446.834 106.144 449.568 105.46C451.847 104.89 454.012 103.979 456.062 102.726C458.227 101.358 459.651 99.3646 460.335 96.7441C462.614 97.1999 464.55 97.5986 466.146 97.9404C467.741 98.1683 469.108 98.3962 470.247 98.624C471.5 98.9658 472.583 99.1937 473.494 99.3076C474.406 99.5355 475.488 99.7633 476.741 99.9912C477.881 100.219 479.248 100.504 480.843 100.846C482.552 101.074 484.546 101.415 486.824 101.871C485.115 101.643 483.349 101.814 481.526 102.384C479.817 102.953 478.165 103.58 476.57 104.264C474.747 105.061 473.038 106.03 471.443 107.169C470.418 107.853 469.222 108.878 467.854 110.245C466.601 111.612 464.778 112.923 462.386 114.176C459.993 115.429 456.803 116.511 452.815 117.423C448.942 118.22 443.929 118.505 437.776 118.277C430.371 118.049 424.161 116.739 419.148 114.347C414.135 111.84 410.091 108.821 407.015 105.289C403.938 101.643 401.717 97.7126 400.35 93.4971C398.982 89.2816 398.242 85.3509 398.128 81.7051C398.014 78.0592 399.096 74.2425 401.375 70.2549C403.654 66.2673 406.844 62.6214 410.945 59.3174C415.161 56.0133 420.231 53.3359 426.155 51.2852C432.08 49.1204 438.574 48.0381 445.638 48.0381C449.739 48.0381 453.499 48.5508 456.917 49.5762C460.449 50.4876 463.639 51.7409 466.487 53.3359C469.45 54.931 472.013 56.7539 474.178 58.8047C476.342 60.7415 478.165 62.7354 479.646 64.7861C481.128 66.9508 482.381 69.2295 483.406 71.6221C484.318 73.6729 485.058 76.0085 485.628 78.6289C486.198 81.2493 486.368 83.9268 486.141 86.6611C477.482 86.889 470.475 87.0599 465.12 87.1738C459.879 87.2878 455.778 87.3447 452.815 87.3447H445.125H439.314C437.264 87.3447 434.586 87.4017 431.282 87.5156C427.978 87.6296 423.934 87.8005 419.148 88.0283C419.718 92.5856 421.142 96.1175 423.421 98.624C425.813 101.017 428.32 102.84 430.94 104.093C433.903 105.46 437.15 106.257 440.682 106.485ZM425.301 75.7236C428.947 75.9515 431.966 76.1224 434.358 76.2363C436.865 76.3503 438.916 76.4642 440.511 76.5781C442.22 76.6921 443.587 76.749 444.612 76.749H448.885C451.733 76.749 457.031 76.5781 464.778 76.2363C464.437 71.2233 463.354 67.4066 461.531 64.7861C459.822 62.1657 457.999 60.2288 456.062 58.9756C453.784 57.6084 451.277 56.8109 448.543 56.583C441.137 56.6969 435.612 58.235 431.966 61.1973C428.434 64.1595 426.212 69.0016 425.301 75.7236ZM491.268 52.1396C493.432 52.2536 495.369 52.3105 497.078 52.3105C498.901 52.1966 500.439 52.0827 501.692 51.9688C503.174 51.8548 504.484 51.7409 505.623 51.627C507.332 51.3991 509.098 51.1143 510.921 50.7725C512.516 50.5446 514.168 50.2598 515.877 49.918C517.7 49.4622 519.466 48.9495 521.175 48.3799C520.491 50.0889 519.922 51.57 519.466 52.8232C519.01 54.0765 518.668 55.1589 518.44 56.0703C518.099 57.0957 517.928 57.9502 517.928 58.6338C517.814 59.4313 517.757 60.3997 517.757 61.5391C517.643 63.4759 517.643 66.609 517.757 70.9385C523.681 65.8115 528.637 61.8239 532.625 58.9756C536.727 56.1273 539.974 53.9056 542.366 52.3105C545.215 50.4876 547.436 49.2913 549.031 48.7217C553.247 48.0381 556.95 49.0065 560.14 51.627C561.507 52.7663 562.817 54.3044 564.07 56.2412C565.324 58.0641 566.406 60.5137 567.317 63.5898C568.229 66.666 568.912 70.3688 569.368 74.6982C569.824 78.9137 569.881 83.9837 569.539 89.9082C567.146 90.1361 564.982 90.3639 563.045 90.5918C561.222 90.8197 559.684 90.9906 558.431 91.1045C556.95 91.3324 555.582 91.4463 554.329 91.4463L549.715 91.959C548.12 92.1868 546.126 92.4147 543.733 92.6426C541.455 92.7565 538.663 92.9844 535.359 93.3262C540.145 89.4525 543.221 86.0915 544.588 83.2432C546.069 80.2809 546.696 77.8314 546.468 75.8945C546.24 73.7298 545.215 71.8499 543.392 70.2549C541.227 69.0016 538.891 68.5459 536.385 68.8877C534.22 69.1156 531.714 70.084 528.865 71.793C526.017 73.502 522.998 76.6921 519.808 81.3633C520.035 88.6549 520.263 94.6934 520.491 99.4785C520.833 104.264 521.118 108.137 521.346 111.1C521.688 114.518 521.972 117.195 522.2 119.132C522.542 120.841 523.226 122.664 524.251 124.601C525.049 126.196 526.188 127.962 527.669 129.898C529.15 131.835 531.087 133.772 533.479 135.709C528.466 135.481 524.365 135.481 521.175 135.709C519.238 135.823 517.529 135.937 516.048 136.051C514.453 136.279 512.744 136.507 510.921 136.734C509.326 136.962 507.446 137.19 505.281 137.418C503.23 137.76 500.952 138.102 498.445 138.443C499.357 137.19 500.097 135.709 500.667 134C501.237 132.405 501.692 130.867 502.034 129.386C502.49 127.677 502.832 125.911 503.06 124.088C503.174 122.493 503.23 120.1 503.23 116.91C503.344 113.72 503.287 110.131 503.06 106.144C502.946 102.042 502.775 97.8265 502.547 93.4971C502.319 89.0537 502.034 84.8952 501.692 81.0215C501.351 77.1478 500.952 73.7868 500.496 70.9385C500.154 67.9762 499.756 65.9255 499.3 64.7861C498.73 63.4189 498.047 62.0518 497.249 60.6846C496.565 59.4313 495.711 58.1211 494.686 56.7539C493.66 55.2728 492.521 53.7347 491.268 52.1396ZM577.571 10.0986C580.875 10.6683 583.781 11.0671 586.287 11.2949C588.908 11.5228 591.072 11.6937 592.781 11.8076C594.832 11.9215 596.598 11.9785 598.079 11.9785C599.56 11.9785 601.668 11.8646 604.402 11.6367C606.681 11.4089 609.643 11.124 613.289 10.7822C617.049 10.4404 621.663 9.87077 627.132 9.07324C625.537 9.52897 624.056 10.8392 622.688 13.0039C621.435 15.0547 620.296 17.2764 619.271 19.6689C618.017 22.5173 616.935 25.6504 616.023 29.0684C615.226 32.1445 614.201 36.36 612.947 41.7148C611.808 47.0697 610.669 52.8802 609.529 59.1465C608.504 65.4128 607.706 71.793 607.137 78.2871C606.567 84.6673 606.453 90.5348 606.795 95.8896C607.251 101.244 608.333 105.688 610.042 109.22C611.751 112.638 614.371 114.461 617.903 114.688C623.258 115.144 627.701 115.201 631.233 114.859C634.879 114.404 637.841 113.777 640.12 112.979C642.399 112.182 644.165 111.271 645.418 110.245C646.671 109.106 647.64 108.023 648.323 106.998C650.146 104.378 652.026 101.017 653.963 96.915C655.9 92.8135 657.609 88.8828 659.09 85.123C660.685 81.3633 661.995 78.1732 663.021 75.5527C664.046 72.9323 664.559 71.679 664.559 71.793C664.559 72.0208 664.502 73.3311 664.388 75.7236C664.388 78.0023 664.331 80.7936 664.217 84.0977C664.217 87.2878 664.16 90.6488 664.046 94.1807C664.046 97.7126 663.989 100.732 663.875 103.238C663.761 105.289 663.647 107.568 663.533 110.074C663.419 112.239 663.305 114.802 663.191 117.765C663.191 120.727 663.077 123.974 662.85 127.506C658.064 127.164 653.507 126.936 649.178 126.822C644.848 126.708 641.032 126.651 637.728 126.651C633.854 126.651 630.265 126.708 626.961 126.822C623.429 126.936 619.327 127.107 614.656 127.335C610.669 127.563 605.713 127.848 599.788 128.189C593.864 128.417 587.028 128.759 579.28 129.215C580.192 127.62 580.932 126.139 581.502 124.771C582.186 123.404 582.698 122.265 583.04 121.354C583.496 120.214 583.781 119.246 583.895 118.448C584.578 114.802 585.148 110.188 585.604 104.605C586.059 98.9089 586.401 92.8704 586.629 86.4902C586.971 80.11 587.142 73.6159 587.142 67.0078C587.256 60.2858 587.256 54.0765 587.142 48.3799C587.028 42.6833 586.8 37.7272 586.458 33.5117C586.23 29.2962 585.888 26.391 585.433 24.7959C584.863 22.973 584.179 21.1501 583.382 19.3271C582.698 17.7321 581.844 16.137 580.818 14.542C579.907 12.833 578.825 11.3519 577.571 10.0986ZM718.562 106.485C721.753 106.485 724.715 106.144 727.449 105.46C729.728 104.89 731.893 103.979 733.943 102.726C736.108 101.358 737.532 99.3646 738.216 96.7441C740.494 97.1999 742.431 97.5986 744.026 97.9404C745.621 98.1683 746.989 98.3962 748.128 98.624C749.381 98.9658 750.464 99.1937 751.375 99.3076C752.286 99.5355 753.369 99.7633 754.622 99.9912C755.761 100.219 757.129 100.504 758.724 100.846C760.433 101.074 762.426 101.415 764.705 101.871C762.996 101.643 761.23 101.814 759.407 102.384C757.698 102.953 756.046 103.58 754.451 104.264C752.628 105.061 750.919 106.03 749.324 107.169C748.299 107.853 747.103 108.878 745.735 110.245C744.482 111.612 742.659 112.923 740.267 114.176C737.874 115.429 734.684 116.511 730.696 117.423C726.823 118.22 721.81 118.505 715.657 118.277C708.252 118.049 702.042 116.739 697.029 114.347C692.016 111.84 687.972 108.821 684.896 105.289C681.819 101.643 679.598 97.7126 678.23 93.4971C676.863 89.2816 676.123 85.3509 676.009 81.7051C675.895 78.0592 676.977 74.2425 679.256 70.2549C681.535 66.2673 684.725 62.6214 688.826 59.3174C693.042 56.0133 698.112 53.3359 704.036 51.2852C709.961 49.1204 716.455 48.0381 723.519 48.0381C727.62 48.0381 731.38 48.5508 734.798 49.5762C738.33 50.4876 741.52 51.7409 744.368 53.3359C747.33 54.931 749.894 56.7539 752.059 58.8047C754.223 60.7415 756.046 62.7354 757.527 64.7861C759.008 66.9508 760.262 69.2295 761.287 71.6221C762.199 73.6729 762.939 76.0085 763.509 78.6289C764.078 81.2493 764.249 83.9268 764.021 86.6611C755.363 86.889 748.356 87.0599 743.001 87.1738C737.76 87.2878 733.659 87.3447 730.696 87.3447H723.006H717.195C715.145 87.3447 712.467 87.4017 709.163 87.5156C705.859 87.6296 701.814 87.8005 697.029 88.0283C697.599 92.5856 699.023 96.1175 701.302 98.624C703.694 101.017 706.201 102.84 708.821 104.093C711.784 105.46 715.031 106.257 718.562 106.485ZM703.182 75.7236C706.827 75.9515 709.847 76.1224 712.239 76.2363C714.746 76.3503 716.797 76.4642 718.392 76.5781C720.101 76.6921 721.468 76.749 722.493 76.749H726.766C729.614 76.749 734.912 76.5781 742.659 76.2363C742.317 71.2233 741.235 67.4066 739.412 64.7861C737.703 62.1657 735.88 60.2288 733.943 58.9756C731.665 57.6084 729.158 56.8109 726.424 56.583C719.018 56.6969 713.493 58.235 709.847 61.1973C706.315 64.1595 704.093 69.0016 703.182 75.7236ZM846.224 36.417C845.198 38.9235 844.287 41.2021 843.489 43.2529C842.806 45.3037 842.179 47.1266 841.609 48.7217C841.04 50.5446 840.527 52.1396 840.071 53.5068C839.616 55.1019 839.103 56.9248 838.533 58.9756C837.964 60.7985 837.223 63.0771 836.312 65.8115C835.514 68.432 834.546 71.5651 833.406 75.2109C832.495 69.7422 830.843 65.4128 828.45 62.2227C826.058 58.9186 823.608 56.3551 821.102 54.5322C818.139 52.4814 814.949 51.0003 811.531 50.0889C805.379 49.0635 800.936 49.1774 798.201 50.4307C795.467 51.6839 793.644 53.279 792.732 55.2158C792.277 56.0133 791.764 57.0387 791.194 58.292C790.739 59.4313 790.34 60.6276 789.998 61.8809C789.77 63.1341 789.713 64.3874 789.827 65.6406C789.941 66.8939 790.454 67.9193 791.365 68.7168C791.935 69.2865 793.416 70.084 795.809 71.1094C798.201 72.0208 801.049 73.1032 804.354 74.3564C807.771 75.4958 811.36 76.749 815.12 78.1162C818.994 79.4834 822.64 80.8506 826.058 82.2178C829.476 83.585 832.438 84.9521 834.944 86.3193C837.451 87.6865 839.103 88.9398 839.9 90.0791C840.584 91.2184 841.325 92.7565 842.122 94.6934C843.034 96.5163 843.66 98.5671 844.002 100.846C844.458 103.01 844.572 105.289 844.344 107.682C844.23 109.96 843.603 112.239 842.464 114.518C841.325 116.796 839.502 118.904 836.995 120.841C834.603 122.778 831.355 124.373 827.254 125.626C822.469 127.107 817.854 127.506 813.411 126.822C808.968 126.139 804.866 125.113 801.106 123.746C797.461 122.379 794.271 121.069 791.536 119.815C788.802 118.448 786.865 117.879 785.726 118.106C784.472 118.334 783.048 118.961 781.453 119.986C779.858 121.012 778.32 122.094 776.839 123.233C775.472 124.259 774.275 125.227 773.25 126.139C772.225 126.936 771.712 127.221 771.712 126.993C771.712 126.765 771.883 126.082 772.225 124.942C772.68 123.803 773.136 122.436 773.592 120.841C774.161 119.132 774.674 117.309 775.13 115.372C775.7 113.321 776.098 111.384 776.326 109.562C776.554 108.08 776.839 106.257 777.181 104.093C777.409 102.156 777.693 99.8203 778.035 97.0859C778.491 94.2376 779.004 90.8197 779.573 86.832C780.143 89.7943 780.94 92.3577 781.966 94.5225C783.105 96.6872 784.188 98.5671 785.213 100.162C786.466 101.985 787.662 103.523 788.802 104.776C790.511 106.371 792.505 107.853 794.783 109.22C797.176 110.587 799.568 111.783 801.961 112.809C804.354 113.72 806.632 114.29 808.797 114.518C810.962 114.745 812.785 114.518 814.266 113.834C815.747 113.15 817 111.897 818.025 110.074C819.165 108.251 819.962 106.257 820.418 104.093C820.874 101.928 821.045 99.8773 820.931 97.9404C820.817 95.8896 820.304 94.2376 819.393 92.9844C818.709 92.1868 817.114 91.1615 814.607 89.9082C812.215 88.6549 809.31 87.2878 805.892 85.8066C802.588 84.3255 799.056 82.7874 795.296 81.1924C791.65 79.5973 788.175 78.0023 784.871 76.4072C781.681 74.6982 779.004 73.1032 776.839 71.6221C774.788 70.027 773.649 68.6029 773.421 67.3496C773.193 65.5267 773.022 63.5329 772.908 61.3682C772.794 59.0895 772.908 56.8678 773.25 54.7031C773.706 52.4245 774.503 50.2598 775.643 48.209C776.896 46.1582 778.719 44.4492 781.111 43.082C782.706 42.1706 784.814 41.487 787.435 41.0312C790.055 40.5755 792.96 40.3477 796.15 40.3477C799.34 40.2337 802.645 40.3477 806.062 40.6895C809.48 40.9173 812.728 41.2591 815.804 41.7148C818.994 42.0566 821.842 42.5124 824.349 43.082C826.969 43.6517 828.963 44.1644 830.33 44.6201C831.925 45.1898 833.634 45.2467 835.457 44.791C837.052 44.4492 838.761 43.7087 840.584 42.5693C842.407 41.43 844.287 39.3792 846.224 36.417ZM927.742 36.417C926.717 38.9235 925.805 41.2021 925.008 43.2529C924.324 45.3037 923.698 47.1266 923.128 48.7217C922.558 50.5446 922.046 52.1396 921.59 53.5068C921.134 55.1019 920.621 56.9248 920.052 58.9756C919.482 60.7985 918.742 63.0771 917.83 65.8115C917.033 68.432 916.064 71.5651 914.925 75.2109C914.013 69.7422 912.361 65.4128 909.969 62.2227C907.576 58.9186 905.127 56.3551 902.62 54.5322C899.658 52.4814 896.468 51.0003 893.05 50.0889C886.897 49.0635 882.454 49.1774 879.72 50.4307C876.985 51.6839 875.162 53.279 874.251 55.2158C873.795 56.0133 873.283 57.0387 872.713 58.292C872.257 59.4313 871.858 60.6276 871.517 61.8809C871.289 63.1341 871.232 64.3874 871.346 65.6406C871.46 66.8939 871.972 67.9193 872.884 68.7168C873.453 69.2865 874.935 70.084 877.327 71.1094C879.72 72.0208 882.568 73.1032 885.872 74.3564C889.29 75.4958 892.879 76.749 896.639 78.1162C900.512 79.4834 904.158 80.8506 907.576 82.2178C910.994 83.585 913.956 84.9521 916.463 86.3193C918.969 87.6865 920.621 88.9398 921.419 90.0791C922.103 91.2184 922.843 92.7565 923.641 94.6934C924.552 96.5163 925.179 98.5671 925.521 100.846C925.976 103.01 926.09 105.289 925.862 107.682C925.748 109.96 925.122 112.239 923.982 114.518C922.843 116.796 921.02 118.904 918.514 120.841C916.121 122.778 912.874 124.373 908.772 125.626C903.987 127.107 899.373 127.506 894.93 126.822C890.486 126.139 886.385 125.113 882.625 123.746C878.979 122.379 875.789 121.069 873.055 119.815C870.32 118.448 868.383 117.879 867.244 118.106C865.991 118.334 864.567 118.961 862.972 119.986C861.377 121.012 859.839 122.094 858.357 123.233C856.99 124.259 855.794 125.227 854.769 126.139C853.743 126.936 853.23 127.221 853.23 126.993C853.23 126.765 853.401 126.082 853.743 124.942C854.199 123.803 854.655 122.436 855.11 120.841C855.68 119.132 856.193 117.309 856.648 115.372C857.218 113.321 857.617 111.384 857.845 109.562C858.073 108.08 858.357 106.257 858.699 104.093C858.927 102.156 859.212 99.8203 859.554 97.0859C860.009 94.2376 860.522 90.8197 861.092 86.832C861.661 89.7943 862.459 92.3577 863.484 94.5225C864.624 96.6872 865.706 98.5671 866.731 100.162C867.985 101.985 869.181 103.523 870.32 104.776C872.029 106.371 874.023 107.853 876.302 109.22C878.694 110.587 881.087 111.783 883.479 112.809C885.872 113.72 888.151 114.29 890.315 114.518C892.48 114.745 894.303 114.518 895.784 113.834C897.265 113.15 898.519 111.897 899.544 110.074C900.683 108.251 901.481 106.257 901.937 104.093C902.392 101.928 902.563 99.8773 902.449 97.9404C902.335 95.8896 901.823 94.2376 900.911 92.9844C900.228 92.1868 898.632 91.1615 896.126 89.9082C893.733 88.6549 890.828 87.2878 887.41 85.8066C884.106 84.3255 880.574 82.7874 876.814 81.1924C873.169 79.5973 869.694 78.0023 866.39 76.4072C863.2 74.6982 860.522 73.1032 858.357 71.6221C856.307 70.027 855.167 68.6029 854.939 67.3496C854.712 65.5267 854.541 63.5329 854.427 61.3682C854.313 59.0895 854.427 56.8678 854.769 54.7031C855.224 52.4245 856.022 50.2598 857.161 48.209C858.414 46.1582 860.237 44.4492 862.63 43.082C864.225 42.1706 866.333 41.487 868.953 41.0312C871.574 40.5755 874.479 40.3477 877.669 40.3477C880.859 40.2337 884.163 40.3477 887.581 40.6895C890.999 40.9173 894.246 41.2591 897.322 41.7148C900.512 42.0566 903.361 42.5124 905.867 43.082C908.488 43.6517 910.481 44.1644 911.849 44.6201C913.444 45.1898 915.153 45.2467 916.976 44.791C918.571 44.4492 920.28 43.7087 922.103 42.5693C923.925 41.43 925.805 39.3792 927.742 36.417Z" fill="url(#paint0_linear_1_10)"/>
<defs>
<linearGradient id="paint0_linear_1_10" x1="2.5" y1="73" x2="931.5" y2="73" gradientUnits="userSpaceOnUse">
<stop stop-color="#00FFFF"/>
<stop offset="1" stop-color="#EEFF00"/>
</linearGradient>
</defs>
</svg>
